<?xml version="1.0" encoding="UTF-8"?>
<svg id="Calque_2" data-name="Calque 2" xmlns="http://www.w3.org/2000/svg" viewBox="0 0 447.07 447.84">
  <defs>
    <style>
      .cls-1, .cls-2 {
        stroke-width: 0px;
      }

      .cls-2 {
        fill: #ffd400;
      }
    </style>
  </defs>
  <g id="Calque_1-2" data-name="Calque 1">
    <path class="cls-1" d="M106.5,192.41c0-23.48,19.09-42.57,42.57-42.57h255.43c23.48,0,42.57,19.09,42.57,42.57v212.86c0,23.48-19.09,42.57-42.57,42.57h-255.43c-23.48,0-42.57-19.09-42.57-42.57v-212.86ZM138.42,373.34v21.29c0,5.85,4.79,10.64,10.64,10.64h21.29c5.85,0,10.64-4.79,10.64-10.64v-21.29c0-5.85-4.79-10.64-10.64-10.64h-21.29c-5.85,0-10.64,4.79-10.64,10.64ZM383.21,362.7c-5.85,0-10.64,4.79-10.64,10.64v21.29c0,5.85,4.79,10.64,10.64,10.64h21.29c5.85,0,10.64-4.79,10.64-10.64v-21.29c0-5.85-4.79-10.64-10.64-10.64h-21.29ZM138.42,288.2v21.29c0,5.85,4.79,10.64,10.64,10.64h21.29c5.85,0,10.64-4.79,10.64-10.64v-21.29c0-5.85-4.79-10.64-10.64-10.64h-21.29c-5.85,0-10.64,4.79-10.64,10.64ZM383.21,277.56c-5.85,0-10.64,4.79-10.64,10.64v21.29c0,5.85,4.79,10.64,10.64,10.64h21.29c5.85,0,10.64-4.79,10.64-10.64v-21.29c0-5.85-4.79-10.64-10.64-10.64h-21.29ZM138.42,203.06v21.29c0,5.85,4.79,10.64,10.64,10.64h21.29c5.85,0,10.64-4.79,10.64-10.64v-21.29c0-5.85-4.79-10.64-10.64-10.64h-21.29c-5.85,0-10.64,4.79-10.64,10.64ZM383.21,192.41c-5.85,0-10.64,4.79-10.64,10.64v21.29c0,5.85,4.79,10.64,10.64,10.64h21.29c5.85,0,10.64-4.79,10.64-10.64v-21.29c0-5.85-4.79-10.64-10.64-10.64h-21.29ZM212.92,213.7v42.57c0,11.77,9.51,21.29,21.29,21.29h85.14c11.77,0,21.29-9.51,21.29-21.29v-42.57c0-11.77-9.51-21.29-21.29-21.29h-85.14c-11.77,0-21.29,9.51-21.29,21.29ZM234.21,320.13c-11.77,0-21.29,9.51-21.29,21.29v42.57c0,11.77,9.51,21.29,21.29,21.29h85.14c11.77,0,21.29-9.51,21.29-21.29v-42.57c0-11.77-9.51-21.29-21.29-21.29h-85.14Z"/>
    <path class="cls-2" d="M106.85,52.54c2.65-4.86,2.76-10.98-.19-16.11-4.55-7.93-14.66-10.66-22.58-6.11s-10.66,14.66-6.11,22.58c2.97,5.16,8.29,8.12,13.82,8.28l3.05,52.9c.48,8.4-6.91,15.13-15.23,13.85l-46.64-7.22c.41-3.43-.22-7.03-2.07-10.26-4.55-7.93-14.66-10.66-22.58-6.11s-10.66,14.66-6.11,22.58c4.55,7.93,14.66,10.66,22.58,6.11l.25-.14,68.16,80.75c8.23,9.77,22.31,12.28,33.43,5.89l99.42-57.09c11.08-6.36,16.04-19.75,11.76-31.84l-35.38-99.58.25-.14c7.93-4.55,10.66-14.66,6.11-22.58-4.55-7.93-14.66-10.66-22.58-6.11-7.93,4.55-10.66,14.66-6.11,22.58,1.85,3.23,4.64,5.59,7.81,6.96l-17.27,43.92c-3.09,7.83-12.62,10.82-19.63,6.17l-44.15-29.3Z"/>
  </g>
</svg>