<?xml version="1.0" encoding="UTF-8"?>
<svg id="Calque_2" data-name="Calque 2" xmlns="http://www.w3.org/2000/svg" viewBox="0 0 448 448">
  <defs>
    <style>
      .cls-1, .cls-2 {
        stroke-width: 0px;
      }

      .cls-2 {
        fill: #fff;
      }
    </style>
  </defs>
  <g id="Calque_1-2" data-name="Calque 1">
    <g id="sTXCP4.tif">
      <g>
        <path class="cls-2" d="m0,427.05V0c121.06,0,242.13,0,363.19,0-2.7,1.84-5.77,3.32-8.06,5.58-20.79,20.6-41.46,41.31-62.12,62.03-7.2,7.22-7.51,16.94-.91,23.5,6.59,6.55,16.22,6.18,23.51-1.04,10.51-10.42,20.94-20.91,31.42-31.36,1.11-1.11,2.32-2.12,4.19-3.82,0,8.73.03,16.48,0,24.24-.15,38.48-5.11,76.22-18.07,112.62-10.86,30.49-26.55,57.96-51.42,79.41-3.8,3.28-7.93,6.17-12.42,9.64.57-7.96,1.41-14.9,1.51-21.85.75-52.22-40.09-89.64-91.05-82.19-32.94,4.81-55.23,24.47-64.53,56.29-9.28,31.76-1.23,60.02,23.87,82.19,16.91,14.94,37.67,19.61,59.77,19.33,2.7-.03,5.4,0,8.1,0l.69,1.33c-8.51,7.87-16.55,16.35-25.62,23.52-47.26,37.38-101.83,54.09-161.47,55.46-9.73.22-16.71,3.03-20.56,12.17Z"/>
        <path class="cls-2" d="m371.17,0c25.61,0,51.22,0,76.83,0v448c-149.33,0-298.67,0-448,0,0-4.32,0-8.65,0-12.97,3.4,7.27,8.39,12.09,17.1,12,51.72-.53,100.79-11.74,146.39-36.55,36.75-19.99,67.4-46.58,88.46-83.34,1.07-1.87,3.65-3.22,5.81-4.08,27.51-11.01,50.18-28.46,68.42-51.64,29.69-37.72,44.26-81.64,51.99-128.3,4.53-27.33,5.36-54.88,4.98-82.5-.02-1.66,0-3.32,0-6.15,12.59,12.6,24.13,24.09,35.6,35.66,4.56,4.61,9.84,6.77,16.25,5.11,12.35-3.21,16.02-17.84,6.7-27.25-19.54-19.72-39.17-39.36-58.92-58.87C379.3,5.67,375.06,3.01,371.17,0Z"/>
        <path class="cls-1" d="m371.17,0c3.89,3.01,8.12,5.67,11.6,9.1,19.75,19.51,39.38,39.14,58.92,58.87,9.32,9.41,5.65,24.04-6.7,27.25-6.41,1.67-11.68-.5-16.25-5.11-11.46-11.57-23-23.05-35.6-35.66,0,2.83-.02,4.49,0,6.15.38,27.62-.45,55.18-4.98,82.5-7.73,46.66-22.3,90.58-51.99,128.3-18.24,23.18-40.91,40.64-68.42,51.64-2.16.87-4.74,2.21-5.81,4.08-21.06,36.76-51.71,63.35-88.46,83.34-45.6,24.81-94.67,36.02-146.39,36.55-8.7.09-13.7-4.73-17.1-12v-7.98c3.85-9.15,10.84-11.95,20.56-12.17,59.63-1.37,114.2-18.08,161.47-55.46,9.07-7.17,17.1-15.65,25.62-23.52l-.69-1.33c-2.7,0-5.4-.03-8.1,0-22.1.28-42.86-4.39-59.77-19.33-25.1-22.17-33.15-50.44-23.87-82.19,9.3-31.82,31.59-51.48,64.53-56.29,50.96-7.45,91.8,29.97,91.05,82.19-.1,6.95-.94,13.89-1.51,21.85,4.49-3.47,8.62-6.36,12.42-9.64,24.87-21.45,40.56-48.92,51.42-79.41,12.96-36.4,17.92-74.14,18.07-112.62.03-7.76,0-15.51,0-24.24-1.88,1.7-3.08,2.72-4.19,3.82-10.48,10.45-20.91,20.95-31.42,31.36-7.29,7.22-16.92,7.59-23.51,1.04-6.59-6.56-6.28-16.28.91-23.5,20.66-20.73,41.33-41.44,62.12-62.03C357.42,3.32,360.48,1.84,363.19,0c2.66,0,5.32,0,7.98,0Zm-168.79,303.19c5.56-.9,15.23-2.32,24.82-4.18,1.65-.32,3.82-2.32,4.25-3.95,2.81-10.53,6.47-21.05,7.5-31.81,3.43-35.64-23.4-61.31-56.83-54.6-19.7,3.95-32.21,16.58-37.13,36.01-4.72,18.63,2.25,37.82,16.86,48.31,10.85,7.79,23.34,9.88,40.54,10.22Z"/>
        <path class="cls-2" d="m202.38,303.19c-17.19-.34-29.69-2.43-40.54-10.22-14.61-10.49-21.58-29.68-16.86-48.31,4.92-19.43,17.43-32.05,37.13-36.01,33.43-6.71,60.26,18.97,56.83,54.6-1.03,10.75-4.69,21.27-7.5,31.81-.43,1.62-2.59,3.63-4.25,3.95-9.58,1.87-19.26,3.28-24.82,4.18Z"/>
      </g>
    </g>
  </g>
</svg>