<?xml version="1.0" encoding="utf-8"?>
<!-- Generator: Adobe Illustrator 28.2.0, SVG Export Plug-In . SVG Version: 6.00 Build 0)  -->
<svg version="1.1" id="Calque_1" xmlns="http://www.w3.org/2000/svg" xmlns:xlink="http://www.w3.org/1999/xlink" x="0px" y="0px"
	 viewBox="0 0 512 512" style="enable-background:new 0 0 512 512;" xml:space="preserve">
<style type="text/css">
	.st0{fill:#FFD400;}
</style>
<path d="M171.4,256.6c0-23.5,19.1-42.6,42.6-42.6h255.4c23.5,0,42.6,19.1,42.6,42.6v212.9c0,23.5-19.1,42.6-42.6,42.6H214
	c-23.5,0-42.6-19.1-42.6-42.6V256.6z M203.4,437.5v21.3c0,5.9,4.8,10.6,10.6,10.6h21.3c5.9,0,10.6-4.8,10.6-10.6v-21.3
	c0-5.9-4.8-10.6-10.6-10.6H214C208.1,426.9,203.4,431.6,203.4,437.5z M448.1,426.9c-5.9,0-10.6,4.8-10.6,10.6v21.3
	c0,5.9,4.8,10.6,10.6,10.6h21.3c5.9,0,10.6-4.8,10.6-10.6v-21.3c0-5.9-4.8-10.6-10.6-10.6H448.1z M203.4,352.4v21.3
	c0,5.9,4.8,10.6,10.6,10.6h21.3c5.9,0,10.6-4.8,10.6-10.6v-21.3c0-5.9-4.8-10.6-10.6-10.6H214C208.1,341.7,203.4,346.5,203.4,352.4z
	 M448.1,341.7c-5.9,0-10.6,4.8-10.6,10.6v21.3c0,5.9,4.8,10.6,10.6,10.6h21.3c5.9,0,10.6-4.8,10.6-10.6v-21.3
	c0-5.9-4.8-10.6-10.6-10.6H448.1z M203.4,267.2v21.3c0,5.9,4.8,10.6,10.6,10.6h21.3c5.9,0,10.6-4.8,10.6-10.6v-21.3
	c0-5.9-4.8-10.6-10.6-10.6H214C208.1,256.6,203.4,261.4,203.4,267.2z M448.1,256.6c-5.9,0-10.6,4.8-10.6,10.6v21.3
	c0,5.9,4.8,10.6,10.6,10.6h21.3c5.9,0,10.6-4.8,10.6-10.6v-21.3c0-5.9-4.8-10.6-10.6-10.6H448.1z M277.9,277.9v42.6
	c0,11.8,9.5,21.3,21.3,21.3h85.1c11.8,0,21.3-9.5,21.3-21.3v-42.6c0-11.8-9.5-21.3-21.3-21.3h-85.1
	C287.4,256.6,277.9,266.1,277.9,277.9z M299.1,384.3c-11.8,0-21.3,9.5-21.3,21.3v42.6c0,11.8,9.5,21.3,21.3,21.3h85.1
	c11.8,0,21.3-9.5,21.3-21.3v-42.6c0-11.8-9.5-21.3-21.3-21.3H299.1z"/>
<g>
	<path class="st0" d="M171.8,116.7c2.6-4.9,2.8-11-0.2-16.1c-4.6-7.9-14.7-10.7-22.6-6.1c-7.9,4.6-10.7,14.7-6.1,22.6
		c3,5.2,8.3,8.1,13.8,8.3l3,52.9c0.5,8.4-6.9,15.1-15.2,13.8l-46.6-7.2c0.4-3.4-0.2-7-2.1-10.3c-4.6-7.9-14.7-10.7-22.6-6.1
		s-10.7,14.7-6.1,22.6c4.6,7.9,14.7,10.7,22.6,6.1c0.1,0,0.2-0.1,0.3-0.1l68.2,80.8c8.2,9.8,22.3,12.3,33.4,5.9l99.4-57.1
		c11.1-6.4,16-19.7,11.8-31.8l-35.4-99.6c0.1,0,0.2-0.1,0.3-0.1c7.9-4.6,10.7-14.7,6.1-22.6c-4.6-7.9-14.7-10.7-22.6-6.1
		S240.5,81,245,88.9c1.9,3.2,4.6,5.6,7.8,7l-17.3,43.9c-3.1,7.8-12.6,10.8-19.6,6.2L171.8,116.7z"/>
</g>
</svg>
